<svg xmlns="http://www.w3.org/2000/svg" viewBox="0 0 67.7 67.7">
  <path d="M13 0h42c7 0 13 6 13 13v42c0 7-6 13-13 13H13C6 68 0 62 0 55V13C0 6 6 0 13 0Z"/>
  <path fill="#fff" d="M9.4 6.8 6.8 9.4l8.8 8.8L6.8 27l2.6 2.6.5-.5 8.3-8.3 8.8 8.8 2.6-2.6-8.8-8.8 8.8-8.8L27 6.8l-8.8 8.8Zm36.9.2a12.7 12.7 0 0 0-9.4 4 13.3 13.3 0 0 0-3.6 9.3 12.7 12.7 0 0 0 3.6 9.3 13.5 13.5 0 0 0 9.4 3.7 12.7 12.7 0 0 0 9.3-3.7 13.3 13.3 0 0 0 2.9-14.5 13.5 13.5 0 0 0-7-7 15 15 0 0 0-5.2-1Zm0 3.4c2.8 0 5.2.8 7 2.9 2 1.8 2.9 4.1 2.9 7s-.8 5.2-2.9 7c-1.8 2-4.2 2.9-7 2.9s-5.2-.8-7-2.9c-2.1-1.8-2.9-4.2-2.9-7s.8-5.2 2.9-7c1.8-2.1 4.1-2.9 7-2.9Zm-26 22.9a12.7 12.7 0 0 0-9.4 3.6 13.3 13.3 0 0 0-2.8 14.6 13.5 13.5 0 0 0 7 7 12.7 12.7 0 0 0 10.4 0 13.3 13.3 0 0 0 7.8-12.2 12.7 12.7 0 0 0-3.7-9.4 13.5 13.5 0 0 0-9.3-3.6Zm0 3.1c2.8 0 5.2.8 7 2.9 2 1.8 2.9 4.1 2.9 7s-.8 5.2-2.9 7c-1.8 2-4.2 2.9-7 2.9s-5.2-.8-7-2.9c-2.1-1.8-2.9-4.2-2.9-7s.8-5.2 2.9-7c1.8-2.1 4.1-2.9 7-2.9zm19.2.5L37 39.5l8.9 8.9-8.9 8.8 2.6 2.6 8.9-8.8 8.8 8.8 2.6-2.6-8.8-8.8 8.8-8.9-2.6-2.6-.5.5-8.3 8.4z"/>
</svg>