<svg xmlns="http://www.w3.org/2000/svg" viewBox="0 -960 960 960">
  <path d="M520-116c-46 0-90.67-8.67-134-26s-81-41-113-71l43-43c26.67 24.67 57.83 44.17 93.5 58.5A293.74 293.74 0 0 0 520-176c83.33 0 154.83-29.83 214.5-89.5C794.17-325.17 824-396.67 824-480c0-83.33-29.83-154.83-89.5-214.5C674.83-754.17 603.33-784 520-784c-83.33 0-154.83 29.83-214.5 89.5C245.83-634.83 216-563.33 216-480v18l70-70 42 42-142 142L44-490l42-42 70 70v-18c0-50.67 9.5-98 28.5-142s45-82.5 78-115.5 71.5-59 115.5-78S469.33-844 520-844s98 9.5 142 28.5 82.5 45 115.5 78 59 71.5 78 115.5S884-530.67 884-480c0 101.33-35.33 187.33-106 258-70.67 70.67-156.67 106-258 106z"/>
</svg>